<svg width="345" height="118" viewBox="0 0 345 118" fill="none" xmlns="http://www.w3.org/2000/svg">
<g style="mix-blend-mode:darken">
<path d="M0 10C0 4.47715 4.47715 0 10 0H335C340.523 0 345 4.47715 345 10V118H0V10Z" fill="#121958"/>
</g>
<path d="M118.76 78.48C126.72 78.48 131.44 73.92 131.44 65.68V50H125.04V65.44C125.04 70.76 122.76 72.96 118.8 72.96C114.88 72.96 112.56 70.76 112.56 65.44V50H106.08V65.68C106.08 73.92 110.8 78.48 118.76 78.48ZM175.403 78L175.323 50H170.003L159.683 67.4L149.203 50H143.843V78H149.923V61.56L158.123 75.04H161.043L169.283 61.2L169.323 78H175.403ZM196.287 56.16C192.847 56.16 189.367 57.08 187.007 58.76L189.247 63.12C190.807 61.88 193.167 61.12 195.447 61.12C198.807 61.12 200.407 62.68 200.407 65.36H195.447C188.887 65.36 186.207 68 186.207 71.8C186.207 75.52 189.207 78.32 194.247 78.32C197.407 78.32 199.647 77.28 200.807 75.32V78H206.647V65.72C206.647 59.2 202.847 56.16 196.287 56.16ZM195.807 74.12C193.607 74.12 192.287 73.08 192.287 71.52C192.287 70.08 193.207 69 196.127 69H200.407V71.2C199.687 73.16 197.887 74.12 195.807 74.12ZM224.534 78H231.014V55.28H239.974V50H215.574V55.28H224.534V78Z" fill="white"/>
</svg>
