<svg width="17" height="14" viewBox="0 0 17 14" fill="none" xmlns="http://www.w3.org/2000/svg">
<path d="M7.35142 4.3943C7.6059 4.75731 7.97258 5.02692 8.3952 5.16175C8.87493 5.30825 9.37552 5.37491 9.87691 5.35908H10.6189C10.8404 5.35145 11.0619 5.37396 11.2774 5.42596C11.3409 5.44095 11.4002 5.4702 11.4508 5.51148C11.4714 5.53097 11.4879 5.55446 11.4991 5.58053C11.5311 5.6621 11.5493 5.74844 11.5529 5.83598C11.5639 5.95987 11.5639 6.11883 11.5639 6.3074C11.5336 6.79392 11.5932 7.28187 11.7395 7.7469C11.8361 8.00321 12.0093 8.22364 12.2356 8.37838C12.5048 8.54661 12.8182 8.6306 13.1356 8.61958C13.388 8.61958 13.5801 8.61958 13.7096 8.62945C13.7557 8.63175 13.8016 8.63761 13.8468 8.64698C13.858 8.73495 13.8624 8.82365 13.86 8.91229V9.49445H14.6283V8.91229C14.634 8.74812 14.6193 8.58384 14.5843 8.42331C14.5512 8.28653 14.4778 8.16283 14.3736 8.06813C14.2946 7.99928 14.2018 7.94805 14.1014 7.9179C13.9626 7.87959 13.8195 7.85896 13.6756 7.85651C13.5219 7.84993 13.3463 7.84995 13.1268 7.84995C12.9621 7.86113 12.7977 7.82295 12.6548 7.74031C12.5851 7.69319 12.5282 7.62952 12.4891 7.55503C12.4092 7.39019 12.3619 7.21154 12.3497 7.02881C12.3293 6.79001 12.3212 6.5503 12.3256 6.31068C12.3301 6.09989 12.3221 5.88903 12.3014 5.6792C12.2849 5.52073 12.2406 5.36639 12.1708 5.22314C12.1116 5.10638 12.0295 5.00271 11.9293 4.91834C11.766 4.78824 11.5736 4.69949 11.3685 4.65962C11.1879 4.62139 11.0042 4.59975 10.8197 4.59494C10.8131 4.59494 10.8065 4.59494 10.7999 4.59494H9.86154C9.4827 4.60526 9.10422 4.56395 8.73655 4.47215C8.5469 4.42282 8.36895 4.33633 8.213 4.21778C7.98211 4.02358 7.81849 3.76155 7.74545 3.469C7.61747 2.97899 7.56054 2.47318 7.57642 1.96703V0.557129H6.80813V1.96482C6.79683 2.49115 6.84991 3.01691 6.96617 3.53039C7.04189 3.83904 7.17236 4.13163 7.35142 4.3943Z" fill="#888888"/>
<path d="M16.3067 6.75473C16.2661 6.5092 16.1458 6.2838 15.9642 6.11335C15.8557 6.01499 15.7279 5.94033 15.5889 5.89411C15.4356 5.84534 15.2755 5.82162 15.1147 5.82391C15.0354 5.82693 14.956 5.81919 14.8787 5.8009C14.8604 5.70225 14.8534 5.60185 14.8579 5.50162C14.8579 5.37444 14.8579 5.21436 14.8579 5.02579C14.8579 4.73197 14.8579 4.52368 14.8579 4.25837C14.8579 4.12352 14.8579 3.97443 14.8579 3.79134C14.8591 3.52732 14.816 3.26496 14.7306 3.01513C14.6098 2.66537 14.366 2.37126 14.0446 2.18739C13.6971 2.00451 13.3077 1.91571 12.9152 1.92977H12.7462C12.5979 1.93824 12.4501 1.90681 12.3181 1.83876C12.2596 1.80374 12.2103 1.75525 12.1744 1.69734C12.105 1.57568 12.062 1.44083 12.0481 1.30154C12.0259 1.11529 12.0163 0.927758 12.0196 0.74022C12.0196 0.681018 12.0196 0.620725 12.0196 0.561523H11.2513C11.2513 0.617436 11.2513 0.677729 11.2513 0.74022C11.2263 1.15605 11.2918 1.57236 11.4434 1.96045C11.5466 2.18518 11.7153 2.37357 11.9274 2.50095C12.1786 2.64088 12.4631 2.70984 12.7506 2.70046H12.924C13.1118 2.69661 13.2992 2.72178 13.4793 2.77504C13.6644 2.82581 13.8242 2.94289 13.9283 3.10392C14.049 3.3175 14.1075 3.56054 14.0973 3.80559C14.0973 3.98539 14.0973 4.13449 14.0973 4.26386C14.0973 4.52808 14.0973 4.73636 14.0973 5.03127C14.0973 5.20669 14.0973 5.3602 14.0973 5.5071C14.0949 5.63691 14.103 5.76666 14.1214 5.89518C14.137 5.99901 14.17 6.09949 14.2191 6.19231C14.2618 6.27053 14.3187 6.34005 14.387 6.39731C14.4893 6.47975 14.6097 6.53686 14.7383 6.56396C14.8671 6.59096 14.9985 6.60346 15.1301 6.60123C15.2244 6.59664 15.3185 6.61313 15.4056 6.64948C15.4363 6.66358 15.4636 6.68414 15.4857 6.70977C15.5229 6.75879 15.5481 6.81588 15.5592 6.87642C15.5783 6.96761 15.5872 7.06063 15.5856 7.15378V9.50102H16.3539V7.15378C16.351 7.01955 16.3352 6.88593 16.3067 6.75473Z" fill="#888888"/>
<path d="M5.72156 11.0249H0.974609V13.9883H5.72156V11.0249Z" fill="#888888"/>
<path d="M16.1077 11.0249H6.91016V13.9883H16.1077V11.0249Z" fill="#888888"/>
</svg>
