<svg width="17" height="16" viewBox="0 0 17 16" fill="none" xmlns="http://www.w3.org/2000/svg">
<path d="M0.974609 2.15056L6.86192 8.03242H2.18193V10.805H9.64533L14.1991 15.3537L15.1002 14.4536L1.88339 1.25049L0.974609 2.15056Z" fill="#E96A60"/>
<path d="M8.99835 3.43662C9.20782 3.73784 9.51051 3.96201 9.85993 4.07469C10.2507 4.19442 10.6587 4.24888 11.0673 4.23585H11.6599C11.8327 4.22952 12.0055 4.24685 12.1736 4.28737C12.2165 4.29681 12.2567 4.31593 12.291 4.34328L12.3174 4.38055C12.3403 4.43979 12.3533 4.50239 12.3558 4.56584C12.3635 4.66122 12.3646 4.7851 12.3646 4.93749C12.3404 5.33336 12.3895 5.73032 12.5094 6.1084C12.591 6.32336 12.7365 6.50815 12.9265 6.6379C13.1507 6.77822 13.4117 6.84849 13.6762 6.83964C13.8781 6.83964 14.0307 6.83963 14.1305 6.84731C14.158 6.84731 14.1755 6.84732 14.1942 6.8539C14.1942 6.89227 14.1997 6.94707 14.1942 7.01724V7.48209H14.9219V7.01724C14.9267 6.88141 14.9145 6.74552 14.8857 6.6127C14.8566 6.4929 14.7924 6.38449 14.7013 6.30135C14.6321 6.24142 14.5509 6.19692 14.4631 6.17086C14.3476 6.13859 14.2285 6.12127 14.1086 6.11934C13.9835 6.11386 13.8419 6.11934 13.6696 6.11934C13.5486 6.12762 13.4278 6.09976 13.3227 6.03931C13.2762 6.00573 13.2385 5.96135 13.213 5.90996C13.1511 5.78522 13.1138 5.64971 13.1032 5.51088C13.0868 5.32205 13.0803 5.13249 13.0835 4.94297C13.0872 4.77243 13.0806 4.60183 13.0637 4.43208C13.0498 4.29912 13.0126 4.16963 12.954 4.04946C12.9035 3.94949 12.8333 3.86073 12.7476 3.78852C12.6102 3.67869 12.4483 3.60351 12.2757 3.56928C12.135 3.54111 11.9922 3.52496 11.8487 3.52103C11.8355 3.52103 11.8235 3.51337 11.8103 3.51337H11.0596C10.762 3.52141 10.4648 3.48894 10.176 3.41688C10.0317 3.37959 9.89629 3.314 9.77761 3.22393C9.60198 3.07574 9.47787 2.87578 9.4231 2.65274C9.32241 2.26643 9.27768 1.86768 9.2903 1.46868V0.342773H8.56371V1.46761C8.55457 1.89257 8.59734 2.31704 8.69104 2.73167C8.75078 2.98301 8.85484 3.22172 8.99835 3.43662Z" fill="#E96A60"/>
<path d="M12.6664 1.93598C12.8755 2.05323 13.1127 2.11121 13.3524 2.1037H13.4907C13.6347 2.10092 13.7783 2.12015 13.9165 2.16072C14.0517 2.19651 14.1689 2.28083 14.2458 2.39753C14.3365 2.55962 14.3802 2.74372 14.372 2.92923C14.372 3.07285 14.372 3.18907 14.372 3.29432C14.372 3.50482 14.372 3.67147 14.372 3.91047C14.372 4.04971 14.372 4.17467 14.372 4.29089C14.37 4.39759 14.3766 4.50429 14.3918 4.60994C14.4054 4.69887 14.4339 4.78486 14.4763 4.86428C14.5136 4.93288 14.5635 4.99387 14.6233 5.04408C14.7119 5.11554 14.816 5.16511 14.9274 5.18878C15.0355 5.21194 15.146 5.2226 15.2566 5.22057C15.3237 5.21684 15.3909 5.22808 15.4531 5.25346L15.4981 5.28745C15.5222 5.31982 15.5383 5.35737 15.5453 5.39709C15.5593 5.46598 15.5655 5.53622 15.5639 5.6065V7.48233H16.2916V5.6054C16.2927 5.4951 16.2831 5.38498 16.2631 5.27651C16.2295 5.06668 16.1272 4.87389 15.9722 4.72834C15.8796 4.64587 15.7709 4.5835 15.6529 4.54523C15.5245 4.50427 15.3903 4.48429 15.2555 4.48604C15.2074 4.48725 15.1592 4.48356 15.1117 4.47507C15.1039 4.41107 15.1006 4.34659 15.1019 4.28212C15.1019 4.18126 15.1019 4.053 15.1019 3.90171C15.1019 3.66709 15.1019 3.50153 15.1019 3.28556C15.1019 3.17592 15.1019 3.05751 15.1019 2.9117C15.1012 2.69438 15.0641 2.47871 14.9921 2.27363C14.8911 1.98174 14.6875 1.73633 14.4192 1.58294C14.1333 1.43189 13.8128 1.35818 13.4896 1.36915H13.3513C13.2426 1.37568 13.1342 1.35296 13.0374 1.30337C12.9979 1.27987 12.9647 1.24716 12.9408 1.20801C12.8893 1.11732 12.8576 1.01683 12.8475 0.913087C12.8301 0.767585 12.8228 0.621068 12.8255 0.47456C12.8255 0.427418 12.8255 0.379174 12.8255 0.332031H12.0979C12.0979 0.376981 12.0979 0.425225 12.0979 0.47456C12.0777 0.815073 12.132 1.15587 12.257 1.4733C12.3432 1.6655 12.486 1.82691 12.6664 1.93598Z" fill="#E96A60"/>
<path d="M10.2188 8.01465L13.0164 10.8081H16.3421V8.01465H10.2188Z" fill="#E96A60"/>
</svg>
