<svg width="180" height="54" viewBox="0 0 180 54" fill="none" xmlns="http://www.w3.org/2000/svg">
<path d="M177.216 21.7546H150.099C149.854 21.7546 149.67 21.9387 149.67 22.1841V28.8099C149.67 29.0553 149.854 29.2393 150.099 29.2393H159.915V51.1411C159.915 51.3865 160.099 51.5706 160.345 51.5706H166.971C167.216 51.5706 167.4 51.3865 167.4 51.1411V29.2393H177.216C177.461 29.2393 177.645 29.0553 177.645 28.8099V22.1841C177.707 22 177.461 21.7546 177.216 21.7546Z" fill="#121958"/>
<path d="M70.9575 37.6442C70.9575 41.5706 67.6446 44.7608 63.5955 44.5154C59.9759 44.27 57.2151 41.0798 57.2151 37.3988V22.1841C57.2151 21.9387 57.0311 21.7546 56.7857 21.7546H50.1599C49.9145 21.7546 49.7305 21.9387 49.7305 22.1841V37.2761C49.7305 45.3129 56.2949 52.1227 64.3317 52C72.1231 51.8773 78.4421 45.497 78.4421 37.6442V22.1841C78.4421 21.9387 78.2581 21.7546 78.0127 21.7546H71.3869C71.1415 21.7546 70.9575 21.9387 70.9575 22.1841V37.6442V37.6442Z" fill="#121958"/>
<path d="M115.314 22.1841C115.314 21.9387 115.13 21.7546 114.885 21.7546H111.817H108.075C107.891 21.7546 107.768 21.816 107.707 22L99.8539 35.9264L92.0011 22C91.9397 21.8773 91.7557 21.7546 91.633 21.7546H87.8907H84.8845C84.6391 21.7546 84.4551 21.9387 84.4551 22.1841V51.1411C84.4551 51.3865 84.6391 51.5706 84.8845 51.5706H91.5103C91.7557 51.5706 91.9397 51.3865 91.9397 51.1411V36.908L97.7066 47.0921C97.768 47.2148 97.952 47.3375 98.0747 47.3375H101.817C102.001 47.3375 102.124 47.2761 102.185 47.0921L107.952 36.908V51.0798C107.952 51.3252 108.136 51.5092 108.381 51.5092H115.007C115.253 51.5092 115.437 51.3252 115.437 51.0798V22.1841H115.314Z" fill="#121958"/>
<path d="M146.11 25.1902H140.588C140.404 25.1902 140.282 25.3129 140.282 25.4969V27.2761C138.257 25.9877 135.864 25.2515 133.349 25.2515C125.926 25.3129 119.913 31.4479 120.22 38.9325C120.466 45.5583 125.864 51.0798 132.49 51.4478C135.312 51.6319 138.012 50.8344 140.22 49.4847V51.1411C140.22 51.3865 140.404 51.5706 140.65 51.5706H142.245H145.987C146.233 51.5706 146.417 51.3865 146.417 51.1411V25.4969C146.417 25.3742 146.294 25.1902 146.11 25.1902ZM133.288 44.0245C130.159 44.0245 127.644 41.5092 127.644 38.3804C127.644 35.2515 130.159 32.7362 133.288 32.7362C136.417 32.7362 138.932 35.2515 138.932 38.3804C138.932 41.5092 136.417 44.0245 133.288 44.0245Z" fill="#121958"/>
<path d="M17.8284 18.1964L24.4542 30.2823C24.6383 30.6504 24.5156 31.0798 24.1475 31.2639C22.491 32.0614 20.5892 32.6136 18.5646 32.7976C12.1229 33.2884 5.9266 29.6074 3.34992 23.6565C-0.576465 14.6995 4.51556 4.82216 13.534 2.49088C16.9695 1.63198 20.4051 1.93873 23.4113 3.22707C23.7794 3.41112 23.9634 3.84057 23.7794 4.20867L17.8284 16.6627C17.5217 17.0921 17.583 17.7056 17.8284 18.1964Z" fill="#121958"/>
<path d="M38.0128 25.8038C36.9085 29.3007 34.5772 32.3682 31.3256 34.3314C30.9575 34.5154 30.5281 34.3927 30.344 34.086C29.117 31.8774 25.1293 24.5768 23.7796 22.0614C23.5956 21.7547 23.9023 21.3866 24.2704 21.4479L37.522 24.9449C37.8901 25.0062 38.1355 25.4357 38.0128 25.8038Z" fill="url(#paint0_linear)"/>
<path d="M36.2951 13.5951C36.9086 15.9264 36.9086 18.2577 36.4791 20.4663C36.3564 20.9571 35.8656 21.2638 35.3748 21.1411L22.246 17.6442C21.8165 17.5215 21.5711 17.0307 21.7552 16.6626L27.6448 4.39265C27.8902 3.90186 28.4423 3.77916 28.8718 4.02455C32.43 5.98775 35.1908 9.36198 36.2951 13.5951Z" fill="#4ADE76"/>
<defs>
<linearGradient id="paint0_linear" x1="25.3914" y1="28.5012" x2="37.9109" y2="25.2673" gradientUnits="userSpaceOnUse">
<stop stop-color="#F15A99"/>
<stop offset="1" stop-color="#EB516D"/>
</linearGradient>
</defs>
</svg>
